<svg width="135" height="20" viewBox="0 0 135 20" fill="none" xmlns="http://www.w3.org/2000/svg">
<path d="M12.0653 12.3076H5.433L4.09379 15.4112H0.161194L7.15484 0.424775H10.2584L17.2733 15.4112H13.4045L12.0653 12.3076ZM10.8111 9.37409L8.74914 4.56995L6.68718 9.37409H10.8111Z" fill="#2A2A2A"/>
<path d="M18.1606 0.424775H22.072V12.2438H28.4492V15.4112H18.1606V0.424775Z" fill="#2A2A2A"/>
<path d="M30.3254 0.424775H37.5742C39.2323 0.424775 40.5219 0.849921 41.443 1.70021C42.3642 2.53633 42.8247 3.70548 42.8247 5.20767C42.8247 6.69568 42.3571 7.86483 41.4218 8.71512C40.5006 9.56541 39.2181 9.99056 37.5742 9.99056H34.2368V15.4112H30.3254V0.424775ZM37.0428 7.05705C37.7655 7.05705 38.2969 6.90825 38.6371 6.61065C38.9913 6.31304 39.1685 5.85247 39.1685 5.22892C39.1685 4.60538 38.9913 4.1448 38.6371 3.8472C38.2969 3.53543 37.7655 3.37954 37.0428 3.37954H34.2368V7.05705H37.0428Z" fill="#2A2A2A"/>
<path d="M58.4862 0.424775V15.4112H54.6599V9.35284H48.5378V15.4112H44.7115V0.424775H48.5378V6.24927H54.6599V0.424775H58.4862Z" fill="#2A2A2A"/>
<path d="M71.2909 12.3076H64.6586L63.3194 15.4112H59.3868L66.3805 0.424775H69.484L76.4989 15.4112H72.6301L71.2909 12.3076ZM70.0367 9.37409L67.9748 4.56995L65.9128 9.37409H70.0367Z" fill="#2A2A2A"/>
<path d="M88.8893 15.6025C87.7697 15.6025 86.6643 15.4537 85.5731 15.1561C84.4819 14.8585 83.5962 14.4617 82.916 13.9657L84.1276 11.2022C84.8504 11.6557 85.6227 12.0029 86.4447 12.2438C87.2666 12.4847 88.0957 12.6052 88.9318 12.6052C89.7821 12.6052 90.4269 12.4918 90.8662 12.2651C91.3197 12.0242 91.5464 11.6911 91.5464 11.266C91.5464 10.8834 91.3409 10.5716 90.93 10.3307C90.5332 10.0898 89.7679 9.84884 88.6342 9.60793C87.2312 9.31032 86.1329 8.95603 85.3393 8.54506C84.5457 8.13409 83.9859 7.65225 83.66 7.09956C83.3482 6.54688 83.1923 5.86664 83.1923 5.05886C83.1923 4.13771 83.4474 3.31577 83.9576 2.59302C84.4819 1.8561 85.2118 1.28215 86.1471 0.871179C87.0966 0.446033 88.1807 0.233459 89.3995 0.233459C90.4765 0.233459 91.5181 0.389346 92.5243 0.70112C93.5446 0.998723 94.3382 1.38844 94.9051 1.87027L93.7147 4.63372C92.3542 3.6984 90.9229 3.23074 89.4207 3.23074C88.698 3.23074 88.1169 3.37245 87.6776 3.65588C87.2383 3.92514 87.0186 4.28652 87.0186 4.74001C87.0186 5.00926 87.0966 5.22892 87.2525 5.39898C87.4083 5.56904 87.6989 5.7391 88.124 5.90916C88.5492 6.06504 89.1798 6.22802 90.0159 6.39807C91.3764 6.69568 92.4463 7.05705 93.2258 7.48219C94.0052 7.89317 94.5579 8.375 94.8838 8.92769C95.2098 9.48038 95.3727 10.1394 95.3727 10.9046C95.3727 12.3785 94.8059 13.5334 93.6722 14.3696C92.5384 15.1915 90.9441 15.6025 88.8893 15.6025Z" fill="#2A2A2A"/>
<path d="M104.366 4.69749C105.613 4.69749 106.541 5.07304 107.151 5.82413C107.76 6.56105 108.065 7.68768 108.065 9.20404V15.4112H104.281V9.37409C104.281 8.75055 104.168 8.29706 103.941 8.01363C103.728 7.7302 103.402 7.58848 102.963 7.58848C102.396 7.58848 101.943 7.77271 101.602 8.14117C101.277 8.49546 101.114 8.97729 101.114 9.58667V15.4112H97.3297V0.424775H101.114V6.20676C101.496 5.71076 101.964 5.33521 102.517 5.08012C103.069 4.82503 103.686 4.69749 104.366 4.69749Z" fill="#2A2A2A"/>
<path d="M115.472 15.5812C114.324 15.5812 113.311 15.3616 112.432 14.9222C111.568 14.4688 110.895 13.831 110.413 13.0091C109.945 12.1871 109.711 11.2235 109.711 10.1181C109.711 9.01272 109.945 8.05614 110.413 7.24837C110.895 6.42642 111.568 5.79578 112.432 5.35647C113.297 4.91715 114.31 4.69749 115.472 4.69749C116.634 4.69749 117.648 4.91715 118.512 5.35647C119.376 5.79578 120.042 6.42642 120.51 7.24837C120.992 8.05614 121.233 9.01272 121.233 10.1181C121.233 11.2235 120.992 12.1871 120.51 13.0091C120.042 13.831 119.376 14.4688 118.512 14.9222C117.648 15.3616 116.634 15.5812 115.472 15.5812ZM115.472 12.754C116.818 12.754 117.492 11.8754 117.492 10.1181C117.492 8.36083 116.818 7.48219 115.472 7.48219C114.126 7.48219 113.453 8.36083 113.453 10.1181C113.453 11.8754 114.126 12.754 115.472 12.754Z" fill="#2A2A2A"/>
<path d="M129.876 4.69749C130.769 4.69749 131.563 4.93132 132.257 5.39898C132.966 5.85247 133.511 6.49727 133.894 7.33339C134.291 8.16951 134.489 9.12609 134.489 10.2031C134.489 11.2802 134.291 12.2297 133.894 13.0516C133.511 13.8594 132.973 14.4829 132.278 14.9222C131.584 15.3616 130.783 15.5812 129.876 15.5812C129.21 15.5812 128.594 15.4466 128.027 15.1773C127.474 14.9081 127.042 14.5467 126.73 14.0932V19.2375H122.946V4.95258H126.666V6.29179C126.964 5.79578 127.396 5.40607 127.963 5.12264C128.544 4.83921 129.182 4.69749 129.876 4.69749ZM128.728 12.754C129.38 12.754 129.876 12.5343 130.216 12.095C130.571 11.6557 130.748 11.0251 130.748 10.2031C130.748 9.33867 130.571 8.67969 130.216 8.2262C129.862 7.75854 129.359 7.52471 128.707 7.52471C128.055 7.52471 127.552 7.75146 127.198 8.20494C126.844 8.65843 126.666 9.31032 126.666 10.1606C126.666 10.9967 126.844 11.6415 127.198 12.095C127.552 12.5343 128.062 12.754 128.728 12.754Z" fill="#2A2A2A"/>
</svg>
