<svg width="24" height="24" viewBox="0 0 24 24" fill="none" xmlns="http://www.w3.org/2000/svg">
<rect x="0.5" y="0.5" width="23" height="23" rx="11.5" stroke="#AFB1BD"/>
<path d="M15.564 14.752V16H9.876V14.86L12.756 11.764C13.092 11.396 13.336 11.06 13.488 10.756C13.648 10.444 13.728 10.136 13.728 9.832C13.728 9.448 13.616 9.16 13.392 8.968C13.176 8.768 12.856 8.668 12.432 8.668C11.672 8.668 10.908 8.96 10.14 9.544L9.624 8.416C9.96 8.12 10.388 7.884 10.908 7.708C11.436 7.524 11.964 7.432 12.492 7.432C13.34 7.432 14.012 7.64 14.508 8.056C15.004 8.472 15.252 9.032 15.252 9.736C15.252 10.224 15.148 10.684 14.94 11.116C14.732 11.54 14.38 12.016 13.884 12.544L11.808 14.752H15.564Z" fill="#AFB1BD"/>
</svg>
