<svg width="24" height="24" viewBox="0 0 24 24" fill="none" xmlns="http://www.w3.org/2000/svg">
<rect x="0.5" y="0.5" width="23" height="23" rx="11.5" stroke="#AFB1BD"/>
<path d="M13.908 11.656C14.404 11.784 14.784 12.028 15.048 12.388C15.32 12.74 15.456 13.18 15.456 13.708C15.456 14.444 15.184 15.028 14.64 15.46C14.104 15.884 13.372 16.096 12.444 16.096C11.876 16.096 11.328 16.008 10.8 15.832C10.28 15.656 9.848 15.416 9.504 15.112L10.02 13.984C10.756 14.568 11.544 14.86 12.384 14.86C12.92 14.86 13.32 14.756 13.584 14.548C13.848 14.332 13.98 14.008 13.98 13.576C13.98 13.152 13.844 12.84 13.572 12.64C13.308 12.432 12.896 12.328 12.336 12.328H11.22V11.104H12.132C13.228 11.104 13.776 10.692 13.776 9.868C13.776 9.484 13.656 9.188 13.416 8.98C13.184 8.772 12.852 8.668 12.42 8.668C12.044 8.668 11.66 8.744 11.268 8.896C10.884 9.04 10.508 9.256 10.14 9.544L9.624 8.416C9.96 8.112 10.388 7.872 10.908 7.696C11.436 7.52 11.972 7.432 12.516 7.432C13.348 7.432 14.012 7.636 14.508 8.044C15.004 8.444 15.252 8.988 15.252 9.676C15.244 10.148 15.12 10.56 14.88 10.912C14.648 11.256 14.324 11.504 13.908 11.656Z" fill="#AFB1BD"/>
</svg>
